<mxfile host="app.diagrams.net" modified="2023-02-20T14:08:04.011Z" agent="5.0 (Windows NT 10.0; Win64; x64) AppleWebKit/537.36 (KHTML, like Gecko) Chrome/110.0.0.0 Safari/537.36 Edg/110.0.1587.50" etag="JQ6J2Tc_WNxvpgP8No9C" version="20.8.20" type="github">
  <diagram name="第 1 页" id="PWcTi1hLDS-wpYgm-kLf">
    <mxGraphModel dx="3452" dy="2542" grid="1" gridSize="10" guides="1" tooltips="1" connect="1" arrows="1" fold="1" page="1" pageScale="1" pageWidth="827" pageHeight="1169" math="0" shadow="0">
      <root>
        <mxCell id="0" />
        <mxCell id="1" parent="0" />
        <mxCell id="yhP4L-oCL2rmlkjbli4L-11" value="" style="image;html=1;image=img/lib/clip_art/networking/UPS_128x128.png;rounded=1;" vertex="1" parent="1">
          <mxGeometry x="600" y="580" width="120" height="120" as="geometry" />
        </mxCell>
        <mxCell id="yhP4L-oCL2rmlkjbli4L-12" value="" style="verticalLabelPosition=bottom;sketch=0;aspect=fixed;html=1;verticalAlign=top;strokeColor=none;align=center;outlineConnect=0;shape=mxgraph.citrix.home_office;rounded=1;" vertex="1" parent="1">
          <mxGeometry x="680" y="380" width="180" height="124.88" as="geometry" />
        </mxCell>
        <mxCell id="yhP4L-oCL2rmlkjbli4L-14" value="" style="shape=image;html=1;verticalAlign=top;verticalLabelPosition=bottom;labelBackgroundColor=#ffffff;imageAspect=0;aspect=fixed;image=https://cdn1.iconfinder.com/data/icons/vehicle-37/24/Drone-128.png;rounded=1;" vertex="1" parent="1">
          <mxGeometry x="720" y="200" width="128" height="128" as="geometry" />
        </mxCell>
        <mxCell id="yhP4L-oCL2rmlkjbli4L-16" value="" style="verticalLabelPosition=bottom;sketch=0;aspect=fixed;html=1;verticalAlign=top;strokeColor=none;align=center;outlineConnect=0;shape=mxgraph.citrix.cell_phone;rounded=1;" vertex="1" parent="1">
          <mxGeometry x="60" y="360" width="25" height="60" as="geometry" />
        </mxCell>
        <mxCell id="yhP4L-oCL2rmlkjbli4L-21" value="" style="image;html=1;image=img/lib/clip_art/telecommunication/iPhone_128x128.png;rounded=1;" vertex="1" parent="1">
          <mxGeometry x="550" y="470" width="80" height="80" as="geometry" />
        </mxCell>
        <mxCell id="yhP4L-oCL2rmlkjbli4L-22" value="" style="image;html=1;image=img/lib/clip_art/telecommunication/Signal_tower_on_128x128.png;rounded=1;" vertex="1" parent="1">
          <mxGeometry x="220" y="320.75" width="80" height="80" as="geometry" />
        </mxCell>
        <mxCell id="yhP4L-oCL2rmlkjbli4L-28" value="" style="shadow=0;dashed=0;html=1;labelPosition=center;verticalLabelPosition=bottom;verticalAlign=top;align=center;outlineConnect=0;shape=mxgraph.veeam.3d.esx_esxi;rounded=1;" vertex="1" parent="1">
          <mxGeometry x="85" y="210" width="100" height="130" as="geometry" />
        </mxCell>
        <mxCell id="yhP4L-oCL2rmlkjbli4L-29" value="" style="shadow=0;dashed=0;html=1;labelPosition=center;verticalLabelPosition=bottom;verticalAlign=top;align=center;outlineConnect=0;shape=mxgraph.veeam.3d.tape_library;rounded=1;" vertex="1" parent="1">
          <mxGeometry x="160" y="200" width="120" height="172" as="geometry" />
        </mxCell>
        <mxCell id="yhP4L-oCL2rmlkjbli4L-34" value="" style="shape=mxgraph.signs.people.man_1;html=1;pointerEvents=1;fillColor=#000000;strokeColor=none;verticalLabelPosition=bottom;verticalAlign=top;align=center;rounded=1;" vertex="1" parent="1">
          <mxGeometry x="390" y="150" width="37" height="98" as="geometry" />
        </mxCell>
        <mxCell id="yhP4L-oCL2rmlkjbli4L-35" value="" style="shape=mxgraph.signs.people.man_1;html=1;pointerEvents=1;fillColor=#000000;strokeColor=none;verticalLabelPosition=bottom;verticalAlign=top;align=center;rounded=1;" vertex="1" parent="1">
          <mxGeometry x="630" y="102" width="37" height="98" as="geometry" />
        </mxCell>
        <mxCell id="yhP4L-oCL2rmlkjbli4L-40" value="" style="verticalLabelPosition=bottom;html=1;verticalAlign=top;align=center;strokeColor=none;fillColor=#3399FF;shape=mxgraph.azure.cloud;rounded=1;" vertex="1" parent="1">
          <mxGeometry x="730" y="-120" width="160" height="92.5" as="geometry" />
        </mxCell>
        <mxCell id="yhP4L-oCL2rmlkjbli4L-44" value="" style="image;html=1;image=img/lib/clip_art/telecommunication/Cellphone_128x128.png;fillColor=#3333FF;rounded=1;" vertex="1" parent="1">
          <mxGeometry x="320" y="150" width="80" height="80" as="geometry" />
        </mxCell>
        <mxCell id="yhP4L-oCL2rmlkjbli4L-45" value="" style="image;html=1;image=img/lib/clip_art/telecommunication/Palm_Treo_128x128.png;fillColor=#3333FF;rounded=1;" vertex="1" parent="1">
          <mxGeometry x="667" y="72.65" width="80" height="80" as="geometry" />
        </mxCell>
        <mxCell id="yhP4L-oCL2rmlkjbli4L-46" value="" style="image;html=1;image=img/lib/clip_art/telecommunication/HTC_smartphone_128x128.png;fillColor=#3333FF;rounded=1;" vertex="1" parent="1">
          <mxGeometry x="427" y="54.3" width="103" height="95.7" as="geometry" />
        </mxCell>
        <mxCell id="yhP4L-oCL2rmlkjbli4L-58" value="" style="group" vertex="1" connectable="0" parent="1">
          <mxGeometry x="80" y="578" width="440" height="264" as="geometry" />
        </mxCell>
        <mxCell id="yhP4L-oCL2rmlkjbli4L-48" value="" style="ellipse;whiteSpace=wrap;html=1;fillColor=#999999;rounded=1;" vertex="1" parent="yhP4L-oCL2rmlkjbli4L-58">
          <mxGeometry y="34" width="440" height="230" as="geometry" />
        </mxCell>
        <mxCell id="yhP4L-oCL2rmlkjbli4L-51" value="" style="verticalLabelPosition=bottom;html=1;verticalAlign=top;strokeWidth=1;align=center;outlineConnect=0;dashed=0;outlineConnect=0;shape=mxgraph.aws3d.cloudfront;fillColor=#ECECEC;strokeColor=#5E5E5E;aspect=fixed;rounded=1;" vertex="1" parent="yhP4L-oCL2rmlkjbli4L-58">
          <mxGeometry x="37.5" y="7" width="103.8" height="169.79999999999998" as="geometry" />
        </mxCell>
        <mxCell id="yhP4L-oCL2rmlkjbli4L-25" value="" style="verticalLabelPosition=bottom;html=1;verticalAlign=top;strokeWidth=1;align=center;outlineConnect=0;dashed=0;outlineConnect=0;shape=mxgraph.aws3d.application_server;fillColor=#ECECEC;strokeColor=#5E5E5E;aspect=fixed;rounded=1;" vertex="1" parent="yhP4L-oCL2rmlkjbli4L-58">
          <mxGeometry x="148.57999999999998" width="142.84" height="144" as="geometry" />
        </mxCell>
        <mxCell id="yhP4L-oCL2rmlkjbli4L-54" value="" style="verticalLabelPosition=bottom;html=1;verticalAlign=top;strokeWidth=1;align=center;outlineConnect=0;dashed=0;outlineConnect=0;shape=mxgraph.aws3d.instance;fillColor=#ECECEC;strokeColor=#5E5E5E;aspect=fixed;rounded=1;" vertex="1" parent="yhP4L-oCL2rmlkjbli4L-58">
          <mxGeometry x="264" y="67.79999999999995" width="138.22" height="109" as="geometry" />
        </mxCell>
        <mxCell id="yhP4L-oCL2rmlkjbli4L-27" value="" style="verticalLabelPosition=bottom;html=1;verticalAlign=top;strokeWidth=1;align=center;outlineConnect=0;dashed=0;outlineConnect=0;shape=mxgraph.aws3d.dataCenter;strokeColor=#5E5E5E;aspect=fixed;rounded=1;" vertex="1" parent="yhP4L-oCL2rmlkjbli4L-58">
          <mxGeometry x="90" y="78" width="123" height="142" as="geometry" />
        </mxCell>
        <mxCell id="yhP4L-oCL2rmlkjbli4L-32" value="" style="verticalLabelPosition=bottom;html=1;verticalAlign=top;strokeWidth=1;align=center;outlineConnect=0;dashed=0;outlineConnect=0;shape=mxgraph.aws3d.dataServer;strokeColor=#5E5E5E;aspect=fixed;rounded=1;" vertex="1" parent="yhP4L-oCL2rmlkjbli4L-58">
          <mxGeometry x="184.5" y="144" width="123" height="106" as="geometry" />
        </mxCell>
        <mxCell id="yhP4L-oCL2rmlkjbli4L-59" value="" style="group" vertex="1" connectable="0" parent="1">
          <mxGeometry x="-340" y="730" width="500" height="294.29999999999995" as="geometry" />
        </mxCell>
        <mxCell id="yhP4L-oCL2rmlkjbli4L-56" value="" style="ellipse;whiteSpace=wrap;html=1;rounded=1;strokeColor=#000000;fillColor=#999999;" vertex="1" parent="yhP4L-oCL2rmlkjbli4L-59">
          <mxGeometry y="64.30000000000001" width="500" height="230" as="geometry" />
        </mxCell>
        <mxCell id="yhP4L-oCL2rmlkjbli4L-36" value="" style="points=[];aspect=fixed;html=1;align=center;shadow=0;dashed=0;image;image=img/lib/allied_telesis/buildings/Large_Building.svg;imageBackground=none;rounded=1;imageBorder=none;" vertex="1" parent="yhP4L-oCL2rmlkjbli4L-59">
          <mxGeometry x="121" y="21.650000000000006" width="125" height="125" as="geometry" />
        </mxCell>
        <mxCell id="yhP4L-oCL2rmlkjbli4L-37" value="" style="points=[];aspect=fixed;html=1;align=center;shadow=0;dashed=0;image;image=img/lib/allied_telesis/buildings/School_Building.svg;rounded=1;imageBorder=none;" vertex="1" parent="yhP4L-oCL2rmlkjbli4L-59">
          <mxGeometry x="246" width="211.99" height="214.3" as="geometry" />
        </mxCell>
        <mxCell id="yhP4L-oCL2rmlkjbli4L-38" value="" style="points=[];aspect=fixed;html=1;align=center;shadow=0;dashed=0;image;image=img/lib/allied_telesis/buildings/Medium_Business_Building.svg;rounded=1;" vertex="1" parent="yhP4L-oCL2rmlkjbli4L-59">
          <mxGeometry x="144.88" y="65.94" width="101.12" height="130.01" as="geometry" />
        </mxCell>
        <mxCell id="yhP4L-oCL2rmlkjbli4L-39" value="" style="points=[];aspect=fixed;html=1;align=center;shadow=0;dashed=0;image;image=img/lib/allied_telesis/buildings/Building_Cluster.svg;rounded=1;" vertex="1" parent="yhP4L-oCL2rmlkjbli4L-59">
          <mxGeometry x="216" y="134.62" width="171.46" height="157.03" as="geometry" />
        </mxCell>
        <mxCell id="yhP4L-oCL2rmlkjbli4L-50" value="" style="points=[];aspect=fixed;html=1;align=center;shadow=0;dashed=0;image;image=img/lib/allied_telesis/buildings/Long_Building.svg;strokeColor=#973030;fillColor=#B3B3B3;rounded=1;" vertex="1" parent="yhP4L-oCL2rmlkjbli4L-59">
          <mxGeometry x="36" y="102.79" width="167.5" height="173.11" as="geometry" />
        </mxCell>
        <mxCell id="yhP4L-oCL2rmlkjbli4L-60" value="" style="ellipse;whiteSpace=wrap;html=1;rounded=1;sketch=0;strokeColor=#003300;fillColor=#66FF66;strokeWidth=3;" vertex="1" parent="1">
          <mxGeometry x="330" y="800" width="1190" height="710" as="geometry" />
        </mxCell>
      </root>
    </mxGraphModel>
  </diagram>
</mxfile>
